<svg width="195" height="50" viewBox="0 0 195 50" fill="none" xmlns="http://www.w3.org/2000/svg">
<path fill-rule="evenodd" clip-rule="evenodd" d="M0 0L195 1.74996e-08L195 50L4.49614e-09 50L0 0Z" fill="#11E94E"/>
<path d="M94.5394 11.7749L70.9033 11.7749L70.9033 17.6612L79.7663 17.6612L79.7663 38.2273L85.6758 38.2273L85.6758 17.6612L94.5394 17.6612L94.5394 11.7749ZM161.318 13.443C162.545 12.3199 164.308 11.7738 166.255 11.7738C170.275 11.7738 172.454 11.7738 176.474 11.7738C178.422 11.7738 180.184 12.3199 181.411 13.443C182.508 14.4485 183.183 15.9239 183.183 17.8955L183.183 38.2273L177.274 38.2273C177.274 34.7933 177.274 32.8688 177.274 29.4348C172.721 29.4348 170.008 29.4348 165.456 29.4348C165.456 32.8688 165.456 34.7933 165.456 38.2273L159.546 38.2273L159.546 17.8955C159.546 15.9239 160.221 14.4485 161.318 13.443ZM165.456 17.6499L165.456 23.5482C170.008 23.5482 172.721 23.5482 177.274 23.5482L177.274 17.6499C172.721 17.6499 170.008 17.6499 165.456 17.6499ZM100.449 38.2273L94.5394 38.2273L94.5394 32.3399L100.449 32.3399L106.35 32.3399L106.35 27.9259L124.085 27.9259L124.085 22.0398L106.35 22.0398L106.35 17.6612L124.085 17.6612L124.085 11.7749L107.158 11.7749C105.21 11.7749 103.448 12.3201 102.221 13.4436C101.124 14.4485 100.449 15.9242 100.449 17.8961L100.449 32.3399L100.449 38.2273ZM153.637 17.6612L153.637 23.9654C153.637 25.5175 152.991 26.8888 151.961 27.8699C150.938 28.8449 149.534 29.4348 148.007 29.4348L147.871 29.4348L153.637 36.2767L153.637 38.2273L147.811 38.2273L140.407 29.4348L135.904 29.4348C135.904 32.3617 135.904 35.3006 135.904 38.2273L129.995 38.2273L129.995 11.7749L147.701 11.7749C151.034 11.7749 153.637 14.4546 153.637 17.6612ZM135.904 17.6612L135.904 23.5482L147.728 23.5482L147.728 17.6612L135.904 17.6612ZM64.9944 17.6612L47.2595 17.6612L47.2595 22.0398L64.9944 22.0398L64.9944 27.9264L47.2595 27.9264L47.2595 32.3501L64.9944 32.3501L64.9944 38.2273L48.0664 38.2273C46.1194 38.2273 44.3569 37.6804 43.1297 36.5578C42.0318 35.5532 41.3573 34.0767 41.3573 32.1045L41.3573 11.7749L64.9944 11.7749L64.9944 17.6612ZM17.7273 21.7945L17.7273 17.6612L29.538 17.6612L29.538 22.0398L17.7273 22.0398L17.7273 21.7945ZM33.4582 25.0008C34.4627 24.1862 35.4475 23.1754 35.4428 21.797L35.4475 17.6554C35.3933 15.7611 34.6973 14.3419 33.5991 13.3757C32.3761 12.2985 31.1996 11.7757 29.2917 11.7757L11.8184 11.7749L11.8184 38.2273L29.3195 38.2273C30.9761 38.2218 32.0987 37.7026 33.359 36.7079C34.6064 35.7226 35.4455 34.2655 35.4455 32.3728L35.4433 28.179C35.4475 26.8224 34.5063 25.7754 33.4582 25.0008ZM17.7273 32.1045L17.7273 27.9259L29.538 27.9259L29.538 32.3501L17.7273 32.3501L17.7273 32.1045ZM124.085 32.3399L106.35 32.3399L106.35 38.2273L124.085 38.2273L124.085 32.3399Z" fill="#141B1F"/>
</svg>
