<svg width="24" height="24" viewBox="0 0 24 24" fill="none" xmlns="http://www.w3.org/2000/svg">
<path fill-rule="evenodd" clip-rule="evenodd" d="M3 6.75C3 7.16421 3.33579 7.5 3.75 7.5H19.75C20.1642 7.5 20.5 7.16421 20.5 6.75C20.5 6.33579 20.1642 6 19.75 6H3.75C3.33579 6 3 6.33579 3 6.75Z" fill="#221E1C"/>
<path fill-rule="evenodd" clip-rule="evenodd" d="M8 12.25C8 12.6642 8.33579 13 8.75 13H19.75C20.1642 13 20.5 12.6642 20.5 12.25C20.5 11.8358 20.1642 11.5 19.75 11.5H8.75C8.33579 11.5 8 11.8358 8 12.25Z" fill="#221E1C"/>
<path fill-rule="evenodd" clip-rule="evenodd" d="M3 17.75C3 18.1642 3.33579 18.5 3.75 18.5H19.75C20.1642 18.5 20.5 18.1642 20.5 17.75C20.5 17.3358 20.1642 17 19.75 17H3.75C3.33579 17 3 17.3358 3 17.75Z" fill="#221E1C"/>
</svg>
