<svg width="24" height="24" viewBox="0 0 24 24" fill="none" xmlns="http://www.w3.org/2000/svg">
<path fill-rule="evenodd" clip-rule="evenodd" d="M7 1.5C7.41421 1.5 7.75 1.83579 7.75 2.25V3.01272C8.41203 2.99999 9.1414 2.99999 9.94358 3H14.0564C14.8586 2.99999 15.588 2.99999 16.25 3.01272V2.25C16.25 1.83579 16.5858 1.5 17 1.5C17.4142 1.5 17.75 1.83579 17.75 2.25V3.07709C18.0099 3.09691 18.2561 3.12182 18.489 3.15313C19.6614 3.31076 20.6104 3.64288 21.3588 4.39124C22.1071 5.13961 22.4392 6.08855 22.5969 7.26098C22.6472 7.63567 22.681 8.04459 22.7037 8.49007C22.7337 8.57106 22.75 8.65861 22.75 8.75C22.75 8.81932 22.7406 8.88644 22.723 8.95016C22.75 9.75214 22.75 10.6628 22.75 11.6936V13.8064C22.75 15.6442 22.75 17.0998 22.5969 18.239C22.4392 19.4114 22.1071 20.3604 21.3588 21.1088C20.6104 21.8571 19.6614 22.1892 18.489 22.3469C17.3498 22.5 15.8942 22.5 14.0564 22.5H9.94359C8.10583 22.5 6.65019 22.5 5.51098 22.3469C4.33856 22.1892 3.38961 21.8571 2.64124 21.1088C1.89288 20.3604 1.56076 19.4114 1.40314 18.239C1.24997 17.0998 1.24998 15.6442 1.25 13.8064V11.6936C1.24999 10.6627 1.24998 9.75214 1.27701 8.95017C1.25941 8.88645 1.25 8.81932 1.25 8.75C1.25 8.65862 1.26634 8.57105 1.29627 8.49006C1.31895 8.04458 1.35276 7.63566 1.40314 7.26098C1.56076 6.08856 1.89288 5.13961 2.64124 4.39124C3.38961 3.64288 4.33856 3.31076 5.51098 3.15313C5.7439 3.12182 5.99006 3.09691 6.25 3.07709V2.25C6.25 1.83579 6.58579 1.5 7 1.5ZM2.76309 9.5C2.75032 10.1527 2.75 10.896 2.75 11.75V13.75C2.75 15.6568 2.75159 17.0115 2.88976 18.0392C3.02502 19.0452 3.27869 19.6249 3.7019 20.0481C4.12511 20.4713 4.70476 20.725 5.71085 20.8602C6.73851 20.9984 8.09318 21 10 21H14C15.9068 21 17.2615 20.9984 18.2892 20.8602C19.2952 20.725 19.8749 20.4713 20.2981 20.0481C20.7213 19.6249 20.975 19.0452 21.1102 18.0392C21.2484 17.0115 21.25 15.6568 21.25 13.75V11.75C21.25 10.896 21.2497 10.1527 21.2369 9.5H2.76309ZM21.1683 8H2.83168C2.8477 7.81061 2.86685 7.63123 2.88976 7.46085C3.02502 6.45476 3.27869 5.87511 3.7019 5.4519C4.12511 5.02869 4.70476 4.77502 5.71085 4.63976C6.73851 4.50159 8.09318 4.5 10 4.5H14C15.9068 4.5 17.2615 4.50159 18.2892 4.63976C19.2952 4.77502 19.8749 5.02869 20.2981 5.4519C20.7213 5.87511 20.975 6.45476 21.1102 7.46085C21.1331 7.63123 21.1523 7.81061 21.1683 8Z" fill="#221E1C"/>
</svg>
