<svg width="24" height="24" viewBox="0 0 24 24" fill="none" xmlns="http://www.w3.org/2000/svg">
<path fill-rule="evenodd" clip-rule="evenodd" d="M11.4999 2.74988C10.2572 2.74988 9.24987 3.75724 9.24987 4.99988V5.25976C9.80694 5.24987 10.4182 5.24987 11.089 5.24988H11.9107C12.5815 5.24987 13.1928 5.24987 13.7499 5.25976V4.99988C13.7499 3.75724 12.7425 2.74988 11.4999 2.74988ZM15.2499 5.3278V4.99988C15.2499 2.92881 13.5709 1.24988 11.4999 1.24988C9.42881 1.24988 7.74987 2.92881 7.74987 4.99988V5.3278C7.60714 5.34009 7.46922 5.35432 7.33594 5.37078C6.32597 5.49557 5.49335 5.75771 4.78606 6.34471C4.07877 6.93171 3.66767 7.70176 3.3589 8.67144C3.05966 9.61116 2.83315 10.8193 2.54841 12.338L2.52773 12.4483C2.12594 14.5911 1.80929 16.2798 1.75118 17.6111C1.69162 18.9757 1.89464 20.1059 2.66441 21.0334C3.43419 21.9609 4.5076 22.3687 5.8598 22.5617C7.17902 22.7499 8.89712 22.7499 11.0773 22.7499H11.9224C14.1026 22.7499 15.8207 22.7499 17.1399 22.5617C18.4921 22.3687 19.5656 21.9609 20.3353 21.0334C21.1051 20.1059 21.3081 18.9757 21.2486 17.6111C21.1905 16.2798 20.8738 14.5911 20.472 12.4483L20.4513 12.338C20.1666 10.8193 19.9401 9.61117 19.6408 8.67144C19.3321 7.70176 18.921 6.93171 18.2137 6.34471C17.5064 5.75771 16.6738 5.49557 15.6638 5.37078C15.5305 5.35432 15.3926 5.34009 15.2499 5.3278ZM7.51987 6.85946C6.66433 6.96517 6.14762 7.16401 5.74401 7.49897C5.34041 7.83394 5.04975 8.30516 4.78818 9.12656C4.52032 9.96776 4.30957 11.0845 4.01346 12.6638C3.59774 14.881 3.30265 16.4646 3.24976 17.6765C3.19776 18.8677 3.38883 19.5575 3.81867 20.0754C4.24852 20.5934 4.89127 20.9083 6.07168 21.0767C7.27259 21.2481 8.88347 21.2499 11.1393 21.2499H11.8605C14.1163 21.2499 15.7272 21.2481 16.9281 21.0767C18.1085 20.9083 18.7512 20.5934 19.1811 20.0754C19.6109 19.5575 19.802 18.8677 19.75 17.6765C19.6971 16.4646 19.402 14.881 18.9863 12.6638C18.6902 11.0845 18.4794 9.96776 18.2116 9.12657C17.95 8.30516 17.6593 7.83394 17.2557 7.49897C16.8521 7.16401 16.3354 6.96517 15.4799 6.85946C14.6037 6.75121 13.4673 6.74988 11.8605 6.74988H11.1393C9.53249 6.74988 8.39602 6.75121 7.51987 6.85946Z" fill="#221E1C"/>
</svg>
