<svg width="24" height="24" viewBox="0 0 24 24" fill="none" xmlns="http://www.w3.org/2000/svg">
<path d="M10.38 5.92857C10.38 6.21112 10.2955 6.48732 10.1373 6.72224C9.97909 6.95717 9.75419 7.14027 9.49106 7.2484C9.22794 7.35652 8.9384 7.38481 8.65907 7.32969C8.37974 7.27457 8.12315 7.13851 7.92177 6.93872C7.72038 6.73893 7.58323 6.48439 7.52767 6.20727C7.47211 5.93016 7.50062 5.64292 7.60961 5.38188C7.7186 5.12084 7.90317 4.89773 8.13998 4.74076C8.37679 4.58378 8.6552 4.5 8.94 4.5C9.32191 4.5 9.68818 4.65051 9.95823 4.91842C10.2283 5.18633 10.38 5.54969 10.38 5.92857ZM15.06 4.5C14.7752 4.5 14.4968 4.58378 14.26 4.74076C14.0232 4.89773 13.8386 5.12084 13.7296 5.38188C13.6206 5.64292 13.5921 5.93016 13.6477 6.20727C13.7032 6.48439 13.8404 6.73893 14.0418 6.93872C14.2432 7.13851 14.4997 7.27457 14.7791 7.32969C15.0584 7.38481 15.3479 7.35652 15.6111 7.2484C15.8742 7.14027 16.0991 6.95717 16.2573 6.72224C16.4155 6.48732 16.5 6.21112 16.5 5.92857C16.5 5.54969 16.3483 5.18633 16.0782 4.91842C15.8082 4.65051 15.4419 4.5 15.06 4.5ZM8.94 10.5714C8.6552 10.5714 8.37679 10.6552 8.13998 10.8122C7.90317 10.9692 7.7186 11.1923 7.60961 11.4533C7.50062 11.7143 7.47211 12.0016 7.52767 12.2787C7.58323 12.5558 7.72038 12.8104 7.92177 13.0102C8.12315 13.2099 8.37974 13.346 8.65907 13.4011C8.9384 13.4562 9.22794 13.428 9.49106 13.3198C9.75419 13.2117 9.97909 13.0286 10.1373 12.7937C10.2955 12.5587 10.38 12.2825 10.38 12C10.38 11.6211 10.2283 11.2578 9.95823 10.9898C9.68818 10.7219 9.32191 10.5714 8.94 10.5714ZM15.06 10.5714C14.7752 10.5714 14.4968 10.6552 14.26 10.8122C14.0232 10.9692 13.8386 11.1923 13.7296 11.4533C13.6206 11.7143 13.5921 12.0016 13.6477 12.2787C13.7032 12.5558 13.8404 12.8104 14.0418 13.0102C14.2432 13.2099 14.4997 13.346 14.7791 13.4011C15.0584 13.4562 15.3479 13.428 15.6111 13.3198C15.8742 13.2117 16.0991 13.0286 16.2573 12.7937C16.4155 12.5587 16.5 12.2825 16.5 12C16.5 11.6211 16.3483 11.2578 16.0782 10.9898C15.8082 10.7219 15.4419 10.5714 15.06 10.5714ZM8.94 16.6429C8.6552 16.6429 8.37679 16.7266 8.13998 16.8836C7.90317 17.0406 7.7186 17.2637 7.60961 17.5247C7.50062 17.7858 7.47211 18.073 7.52767 18.3501C7.58323 18.6272 7.72038 18.8818 7.92177 19.0816C8.12315 19.2814 8.37974 19.4174 8.65907 19.4725C8.9384 19.5277 9.22794 19.4994 9.49106 19.3913C9.75419 19.2831 9.97909 19.1 10.1373 18.8651C10.2955 18.6302 10.38 18.354 10.38 18.0714C10.38 17.6925 10.2283 17.3292 9.95823 17.0613C9.68818 16.7934 9.32191 16.6429 8.94 16.6429ZM15.06 16.6429C14.7752 16.6429 14.4968 16.7266 14.26 16.8836C14.0232 17.0406 13.8386 17.2637 13.7296 17.5247C13.6206 17.7858 13.5921 18.073 13.6477 18.3501C13.7032 18.6272 13.8404 18.8818 14.0418 19.0816C14.2432 19.2814 14.4997 19.4174 14.7791 19.4725C15.0584 19.5277 15.3479 19.4994 15.6111 19.3913C15.8742 19.2831 16.0991 19.1 16.2573 18.8651C16.4155 18.6302 16.5 18.354 16.5 18.0714C16.5 17.6925 16.3483 17.3292 16.0782 17.0613C15.8082 16.7934 15.4419 16.6429 15.06 16.6429Z" fill="#221E1C"/>
</svg>
