<svg width="24" height="24" viewBox="0 0 24 24" fill="none" xmlns="http://www.w3.org/2000/svg">
<path d="M18.7882 13.3338C19.2569 13.3338 19.6368 12.9539 19.6368 12.4853C19.6368 12.0167 19.2569 11.6368 18.7882 11.6368L12.8485 11.6368L12.8485 5.69706C12.8485 5.22843 12.4686 4.84853 12 4.84853C11.5314 4.84853 11.1515 5.22843 11.1515 5.69706L11.1515 11.6368L5.21178 11.6368C4.74315 11.6368 4.36325 12.0167 4.36325 12.4853C4.36325 12.9539 4.74315 13.3338 5.21177 13.3338L11.1515 13.3338V19.2735C11.1515 19.7421 11.5314 20.122 12 20.122C12.4686 20.122 12.8485 19.7421 12.8485 19.2735V13.3338L18.7882 13.3338Z" fill="#221E1C"/>
</svg>
