<svg width="24" height="24" viewBox="0 0 24 24" fill="none" xmlns="http://www.w3.org/2000/svg">
<path d="M2.25384 5.9687C1.17066 3.54403 3.76265 1.11687 6.15186 2.31646L6.15084 2.31746L20.4389 9.48679L20.6282 9.58991C22.4573 10.6758 22.4573 13.3246 20.6282 14.4105L20.4389 14.5136L6.15186 21.684C3.76214 22.8828 1.16996 20.4549 2.25384 18.0307L4.71617 12.5183L4.76376 12.3942C4.80506 12.2673 4.82559 12.1345 4.82552 12.0007C4.82551 11.9937 4.82635 11.9867 4.82653 11.9797C4.82379 11.8119 4.78866 11.6432 4.7182 11.4831L2.25384 5.9697V5.9687ZM5.44718 3.68805C4.36122 3.14281 3.18398 4.24608 3.67636 5.34798L6.14072 10.8614L6.14173 10.8634C6.19486 10.9833 6.23563 11.1072 6.27133 11.2318H13.8254C14.2547 11.232 14.603 11.5762 14.603 12.0007C14.6027 12.425 14.2545 12.7694 13.8254 12.7696H6.2693C6.26026 12.8011 6.25415 12.8335 6.24399 12.8647L6.1387 13.139L3.67636 18.6524V18.6534C3.18471 19.7536 4.36078 20.8579 5.44819 20.3124L19.7352 13.142L19.9022 13.0439C20.6777 12.5048 20.6216 11.3027 19.7352 10.8584L5.44718 3.68805Z" fill="#221E1C"/>
</svg>
