<svg width="24" height="24" viewBox="0 0 24 24" fill="none" xmlns="http://www.w3.org/2000/svg">
<path fill-rule="evenodd" clip-rule="evenodd" d="M2 7.00005C2 6.58583 2.33579 6.25005 2.75 6.25005H12.75C13.1642 6.25005 13.5 6.58583 13.5 7.00005C13.5 7.41426 13.1642 7.75005 12.75 7.75005H2.75C2.33579 7.75005 2 7.41426 2 7.00005ZM2 12C2 11.5858 2.33579 11.25 2.75 11.25H9.75C10.1642 11.25 10.5 11.5858 10.5 12C10.5 12.4143 10.1642 12.75 9.75 12.75H2.75C2.33579 12.75 2 12.4143 2 12ZM2 17.0001C2 16.5858 2.33579 16.2501 2.75 16.2501H7.75C8.16421 16.2501 8.5 16.5858 8.5 17.0001C8.5 17.4143 8.16421 17.7501 7.75 17.7501H2.75C2.33579 17.7501 2 17.4143 2 17.0001Z" fill="#221E1C"/>
<path d="M21.6157 17.7506C21.2651 17.7506 20.9808 17.4664 20.9808 17.1158V7.03967H17.8215C16.9999 7.04488 16.375 7.22457 15.9468 7.57874C15.5236 7.9329 15.312 8.46155 15.312 9.16467C15.312 9.8678 15.5136 10.3964 15.9169 10.7506C16.3203 11.0996 16.9078 11.274 17.6796 11.274H21.3543V12.5865H17.6796C16.8879 12.5865 16.2157 12.4537 15.663 12.1881C15.1153 11.9225 14.697 11.5345 14.4082 11.024C14.1194 10.5136 13.975 9.89384 13.975 9.16467C13.975 8.4303 14.1219 7.81051 14.4157 7.3053C14.7145 6.79488 15.1501 6.40947 15.7228 6.14905C16.3003 5.88342 16.9999 5.75061 17.8215 5.75061H21.2506C21.8028 5.75061 22.2506 6.19833 22.2506 6.75061V17.1158C22.2506 17.4664 21.9663 17.7506 21.6157 17.7506ZM14.3312 17.7506C13.8459 17.7506 13.5387 17.2297 13.7736 16.8049L16.5518 11.7819H18.0082L14.8889 17.4218C14.7766 17.6247 14.5631 17.7506 14.3312 17.7506Z" fill="#221E1C"/>
</svg>
